# xmcd CD database file
#
# Track frame offsets:
#	150
#	24322
#	55833
#	89126
#	107254
#	141424
#	152074
#
# Disc length: 2449 seconds
#
# Revision: 1
# Processed by: cddbd v1.4PL0 Copyright (c) Steve Scherf et al.
# Submitted via: Feurio! 1.65 - http://www.feurio.com
#
DISCID=55098f07
DTITLE=Love Unlimited Orchestra - My Musical Banquet
DYEAR=1900
DGENRE=R&B
TTITLE0=Don't You Know How Much I Love You
TTITLE1=Stay Please (And Make Love To Me)
TTITLE2=Hey Look At Me I'm In Love
TTITLE3=Love You Ooh It' True I Do
TTITLE4=Whisper Softly
TTITLE5=Enter Love's Interlude
TTITLE6=Can't You See
EXTD=
EXTT0=
EXTT1=
EXTT2=
EXTT3=
EXTT4=
EXTT5=
EXTT6=
PLAYORDER=
